<mxfile host="Electron" agent="Mozilla/5.0 (Windows NT 10.0; Win64; x64) AppleWebKit/537.36 (KHTML, like Gecko) draw.io/27.0.9 Chrome/134.0.6998.205 Electron/35.4.0 Safari/537.36" version="27.0.9">
  <diagram name="Pagina-1" id="cJoi7wfnVk4TJPtzrbIa">
    <mxGraphModel dx="3764" dy="1746" grid="1" gridSize="10" guides="1" tooltips="1" connect="1" arrows="1" fold="1" page="1" pageScale="1" pageWidth="827" pageHeight="1169" math="0" shadow="0">
      <root>
        <mxCell id="0" />
        <mxCell id="1" parent="0" />
        <mxCell id="V5TJ8pZlYPnshswrYm4_-91" value="" style="rounded=0;whiteSpace=wrap;html=1;fillColor=#dae8fc;strokeColor=#6c8ebf;" parent="1" vertex="1">
          <mxGeometry width="1470" height="670" as="geometry" />
        </mxCell>
        <mxCell id="V5TJ8pZlYPnshswrYm4_-22" value="" style="group" parent="1" vertex="1" connectable="0">
          <mxGeometry x="650" width="110" height="70" as="geometry" />
        </mxCell>
        <mxCell id="V5TJ8pZlYPnshswrYm4_-13" value="" style="image;aspect=fixed;html=1;points=[];align=center;fontSize=12;image=img/lib/azure2/general/Resource_Groups.svg;" parent="V5TJ8pZlYPnshswrYm4_-22" vertex="1">
          <mxGeometry x="21" width="47.599999999999994" height="44.8" as="geometry" />
        </mxCell>
        <mxCell id="V5TJ8pZlYPnshswrYm4_-21" value="Resource Group" style="text;html=1;align=center;verticalAlign=middle;resizable=0;points=[];autosize=1;strokeColor=none;fillColor=none;" parent="V5TJ8pZlYPnshswrYm4_-22" vertex="1">
          <mxGeometry y="49" width="110" height="30" as="geometry" />
        </mxCell>
        <mxCell id="V5TJ8pZlYPnshswrYm4_-51" value="" style="group" parent="1" vertex="1" connectable="0">
          <mxGeometry x="90" y="470" width="180" height="96" as="geometry" />
        </mxCell>
        <mxCell id="V5TJ8pZlYPnshswrYm4_-146" style="edgeStyle=orthogonalEdgeStyle;rounded=0;orthogonalLoop=1;jettySize=auto;html=1;exitX=0.986;exitY=0.674;exitDx=0;exitDy=0;exitPerimeter=0;strokeColor=#FF0000;strokeWidth=2;" parent="V5TJ8pZlYPnshswrYm4_-51" source="V5TJ8pZlYPnshswrYm4_-4" edge="1">
          <mxGeometry relative="1" as="geometry">
            <mxPoint x="190" y="-20" as="targetPoint" />
            <Array as="points">
              <mxPoint x="191" y="45" />
            </Array>
          </mxGeometry>
        </mxCell>
        <mxCell id="V5TJ8pZlYPnshswrYm4_-4" value="" style="image;aspect=fixed;html=1;points=[];align=center;fontSize=12;image=img/lib/azure2/networking/Private_Endpoint.svg;" parent="V5TJ8pZlYPnshswrYm4_-51" vertex="1">
          <mxGeometry x="54" width="72" height="66" as="geometry" />
        </mxCell>
        <mxCell id="V5TJ8pZlYPnshswrYm4_-46" value="Private Endpoint Connection" style="text;html=1;align=center;verticalAlign=middle;resizable=0;points=[];autosize=1;strokeColor=none;fillColor=none;" parent="V5TJ8pZlYPnshswrYm4_-51" vertex="1">
          <mxGeometry y="66" width="180" height="30" as="geometry" />
        </mxCell>
        <mxCell id="V5TJ8pZlYPnshswrYm4_-57" value="" style="group" parent="1" vertex="1" connectable="0">
          <mxGeometry x="1470" y="57.49999999999997" width="60" height="67.5" as="geometry" />
        </mxCell>
        <mxCell id="V5TJ8pZlYPnshswrYm4_-54" value="" style="verticalLabelPosition=bottom;html=1;verticalAlign=top;align=center;strokeColor=none;fillColor=#00BEF2;shape=mxgraph.azure.tablet;pointerEvents=1;" parent="V5TJ8pZlYPnshswrYm4_-57" vertex="1">
          <mxGeometry x="5" width="50" height="37.5" as="geometry" />
        </mxCell>
        <mxCell id="V5TJ8pZlYPnshswrYm4_-56" value="Tablet" style="text;html=1;align=center;verticalAlign=middle;resizable=0;points=[];autosize=1;strokeColor=none;fillColor=none;" parent="V5TJ8pZlYPnshswrYm4_-57" vertex="1">
          <mxGeometry y="37.5" width="60" height="30" as="geometry" />
        </mxCell>
        <mxCell id="V5TJ8pZlYPnshswrYm4_-59" value="" style="group" parent="1" vertex="1" connectable="0">
          <mxGeometry x="1550" y="50" width="80" height="75" as="geometry" />
        </mxCell>
        <mxCell id="V5TJ8pZlYPnshswrYm4_-53" value="" style="verticalLabelPosition=bottom;html=1;verticalAlign=top;align=center;strokeColor=none;fillColor=#00BEF2;shape=mxgraph.azure.computer;pointerEvents=1;" parent="V5TJ8pZlYPnshswrYm4_-59" vertex="1">
          <mxGeometry x="15" width="50" height="45" as="geometry" />
        </mxCell>
        <mxCell id="V5TJ8pZlYPnshswrYm4_-58" value="Computer" style="text;html=1;align=center;verticalAlign=middle;resizable=0;points=[];autosize=1;strokeColor=none;fillColor=none;" parent="V5TJ8pZlYPnshswrYm4_-59" vertex="1">
          <mxGeometry y="45" width="80" height="30" as="geometry" />
        </mxCell>
        <mxCell id="V5TJ8pZlYPnshswrYm4_-63" value="" style="group" parent="1" vertex="1" connectable="0">
          <mxGeometry x="1530" y="354.96" width="89.43089430894315" height="86.34146341463418" as="geometry" />
        </mxCell>
        <mxCell id="V5TJ8pZlYPnshswrYm4_-60" value="" style="image;aspect=fixed;perimeter=ellipsePerimeter;html=1;align=center;shadow=0;dashed=0;spacingTop=3;image=img/lib/active_directory/internet_cloud.svg;container=0;" parent="V5TJ8pZlYPnshswrYm4_-63" vertex="1">
          <mxGeometry width="89.43089430894308" height="56.34146341463415" as="geometry" />
        </mxCell>
        <mxCell id="V5TJ8pZlYPnshswrYm4_-61" value="Internet" style="text;html=1;align=center;verticalAlign=middle;resizable=0;points=[];autosize=1;strokeColor=none;fillColor=none;container=0;" parent="V5TJ8pZlYPnshswrYm4_-63" vertex="1">
          <mxGeometry x="14.720000000000027" y="56.34146341463418" width="60" height="30" as="geometry" />
        </mxCell>
        <mxCell id="V5TJ8pZlYPnshswrYm4_-64" style="edgeStyle=orthogonalEdgeStyle;rounded=0;orthogonalLoop=1;jettySize=auto;html=1;entryX=0.5;entryY=0;entryDx=0;entryDy=0;strokeWidth=2;" parent="1" source="V5TJ8pZlYPnshswrYm4_-56" target="V5TJ8pZlYPnshswrYm4_-60" edge="1">
          <mxGeometry relative="1" as="geometry" />
        </mxCell>
        <mxCell id="V5TJ8pZlYPnshswrYm4_-65" style="edgeStyle=orthogonalEdgeStyle;rounded=0;orthogonalLoop=1;jettySize=auto;html=1;entryX=0.5;entryY=0;entryDx=0;entryDy=0;strokeWidth=2;" parent="1" source="V5TJ8pZlYPnshswrYm4_-58" target="V5TJ8pZlYPnshswrYm4_-60" edge="1">
          <mxGeometry relative="1" as="geometry" />
        </mxCell>
        <mxCell id="V5TJ8pZlYPnshswrYm4_-73" style="edgeStyle=orthogonalEdgeStyle;rounded=0;orthogonalLoop=1;jettySize=auto;html=1;exitX=0;exitY=0.5;exitDx=0;exitDy=0;strokeWidth=2;entryX=0.986;entryY=0.542;entryDx=0;entryDy=0;entryPerimeter=0;" parent="1" source="V5TJ8pZlYPnshswrYm4_-60" target="V5TJ8pZlYPnshswrYm4_-1" edge="1">
          <mxGeometry relative="1" as="geometry">
            <mxPoint x="1450" y="381" as="targetPoint" />
          </mxGeometry>
        </mxCell>
        <mxCell id="V5TJ8pZlYPnshswrYm4_-26" value="" style="group" parent="1" vertex="1" connectable="0">
          <mxGeometry x="995" y="352.9599999999999" width="110" height="99" as="geometry" />
        </mxCell>
        <mxCell id="V5TJ8pZlYPnshswrYm4_-14" value="" style="image;aspect=fixed;html=1;points=[];align=center;fontSize=12;image=img/lib/azure2/app_services/App_Services.svg;" parent="V5TJ8pZlYPnshswrYm4_-26" vertex="1">
          <mxGeometry x="23" width="64" height="64" as="geometry" />
        </mxCell>
        <mxCell id="V5TJ8pZlYPnshswrYm4_-25" value="Web Server&lt;div&gt;&lt;br&gt;&lt;/div&gt;" style="text;html=1;align=center;verticalAlign=middle;resizable=0;points=[];autosize=1;strokeColor=none;fillColor=none;" parent="V5TJ8pZlYPnshswrYm4_-26" vertex="1">
          <mxGeometry x="10" y="59" width="90" height="40" as="geometry" />
        </mxCell>
        <mxCell id="V5TJ8pZlYPnshswrYm4_-68" style="edgeStyle=orthogonalEdgeStyle;rounded=0;orthogonalLoop=1;jettySize=auto;html=1;endArrow=none;startFill=0;exitX=0.5;exitY=1;exitDx=0;exitDy=0;" parent="1" source="V5TJ8pZlYPnshswrYm4_-112" target="V5TJ8pZlYPnshswrYm4_-14" edge="1">
          <mxGeometry relative="1" as="geometry" />
        </mxCell>
        <mxCell id="V5TJ8pZlYPnshswrYm4_-71" style="edgeStyle=orthogonalEdgeStyle;rounded=0;orthogonalLoop=1;jettySize=auto;html=1;strokeWidth=2;entryX=0.993;entryY=0.558;entryDx=0;entryDy=0;entryPerimeter=0;" parent="1" source="V5TJ8pZlYPnshswrYm4_-14" target="V5TJ8pZlYPnshswrYm4_-10" edge="1">
          <mxGeometry relative="1" as="geometry">
            <mxPoint x="1020" y="384" as="targetPoint" />
          </mxGeometry>
        </mxCell>
        <mxCell id="V5TJ8pZlYPnshswrYm4_-67" style="rounded=0;orthogonalLoop=1;jettySize=auto;html=1;edgeStyle=orthogonalEdgeStyle;endArrow=none;startFill=0;" parent="1" source="V5TJ8pZlYPnshswrYm4_-2" target="V5TJ8pZlYPnshswrYm4_-37" edge="1">
          <mxGeometry relative="1" as="geometry" />
        </mxCell>
        <mxCell id="V5TJ8pZlYPnshswrYm4_-30" value="" style="group" parent="1" vertex="1" connectable="0">
          <mxGeometry x="900" y="351.96" width="65" height="94" as="geometry" />
        </mxCell>
        <mxCell id="V5TJ8pZlYPnshswrYm4_-10" value="" style="image;aspect=fixed;html=1;points=[];align=center;fontSize=12;image=img/lib/azure2/app_services/API_Management_Services.svg;" parent="V5TJ8pZlYPnshswrYm4_-30" vertex="1">
          <mxGeometry width="65" height="60" as="geometry" />
        </mxCell>
        <mxCell id="V5TJ8pZlYPnshswrYm4_-29" value="APIM" style="text;html=1;align=center;verticalAlign=middle;resizable=0;points=[];autosize=1;strokeColor=none;fillColor=none;" parent="V5TJ8pZlYPnshswrYm4_-30" vertex="1">
          <mxGeometry x="7.5" y="64" width="50" height="30" as="geometry" />
        </mxCell>
        <mxCell id="V5TJ8pZlYPnshswrYm4_-24" value="" style="group" parent="1" vertex="1" connectable="0">
          <mxGeometry x="750" y="351.96" width="69" height="92" as="geometry" />
        </mxCell>
        <mxCell id="V5TJ8pZlYPnshswrYm4_-12" value="" style="image;aspect=fixed;html=1;points=[];align=center;fontSize=12;image=img/lib/azure2/compute/Virtual_Machine.svg;" parent="V5TJ8pZlYPnshswrYm4_-24" vertex="1">
          <mxGeometry width="69" height="64" as="geometry" />
        </mxCell>
        <mxCell id="V5TJ8pZlYPnshswrYm4_-23" value="API-VM" style="text;html=1;align=center;verticalAlign=middle;resizable=0;points=[];autosize=1;strokeColor=none;fillColor=none;" parent="V5TJ8pZlYPnshswrYm4_-24" vertex="1">
          <mxGeometry x="3" y="62" width="60" height="30" as="geometry" />
        </mxCell>
        <mxCell id="V5TJ8pZlYPnshswrYm4_-20" value="" style="group" parent="1" vertex="1" connectable="0">
          <mxGeometry x="480" y="99.99999999999994" width="150" height="80" as="geometry" />
        </mxCell>
        <mxCell id="V5TJ8pZlYPnshswrYm4_-2" value="" style="image;aspect=fixed;html=1;points=[];align=center;fontSize=12;image=img/lib/azure2/networking/Virtual_Networks.svg;" parent="V5TJ8pZlYPnshswrYm4_-20" vertex="1">
          <mxGeometry x="30" width="67" height="40" as="geometry" />
        </mxCell>
        <mxCell id="V5TJ8pZlYPnshswrYm4_-141" style="edgeStyle=orthogonalEdgeStyle;rounded=0;orthogonalLoop=1;jettySize=auto;html=1;exitX=1.06;exitY=0.462;exitDx=0;exitDy=0;exitPerimeter=0;endArrow=none;startFill=0;" parent="V5TJ8pZlYPnshswrYm4_-20" source="V5TJ8pZlYPnshswrYm4_-2" edge="1">
          <mxGeometry relative="1" as="geometry">
            <mxPoint x="130" y="150.00000000000006" as="targetPoint" />
            <Array as="points">
              <mxPoint x="170" y="19" />
              <mxPoint x="170" y="150" />
            </Array>
          </mxGeometry>
        </mxCell>
        <mxCell id="V5TJ8pZlYPnshswrYm4_-19" value="VNet VlammendVarken" style="text;html=1;align=center;verticalAlign=middle;resizable=0;points=[];autosize=1;strokeColor=none;fillColor=none;" parent="V5TJ8pZlYPnshswrYm4_-20" vertex="1">
          <mxGeometry y="50" width="150" height="30" as="geometry" />
        </mxCell>
        <mxCell id="V5TJ8pZlYPnshswrYm4_-66" style="edgeStyle=orthogonalEdgeStyle;rounded=0;orthogonalLoop=1;jettySize=auto;html=1;endArrow=none;startFill=0;entryX=0.5;entryY=0.063;entryDx=0;entryDy=0;entryPerimeter=0;" parent="1" source="V5TJ8pZlYPnshswrYm4_-2" target="V5TJ8pZlYPnshswrYm4_-3" edge="1">
          <mxGeometry relative="1" as="geometry" />
        </mxCell>
        <mxCell id="V5TJ8pZlYPnshswrYm4_-70" style="edgeStyle=orthogonalEdgeStyle;rounded=0;orthogonalLoop=1;jettySize=auto;html=1;endArrow=none;startFill=0;exitX=0.5;exitY=1;exitDx=0;exitDy=0;" parent="1" source="V5TJ8pZlYPnshswrYm4_-110" target="V5TJ8pZlYPnshswrYm4_-12" edge="1">
          <mxGeometry relative="1" as="geometry">
            <mxPoint x="720" y="310" as="sourcePoint" />
          </mxGeometry>
        </mxCell>
        <mxCell id="V5TJ8pZlYPnshswrYm4_-72" style="edgeStyle=orthogonalEdgeStyle;rounded=0;orthogonalLoop=1;jettySize=auto;html=1;entryX=0.971;entryY=0.447;entryDx=0;entryDy=0;entryPerimeter=0;strokeWidth=2;" parent="1" source="V5TJ8pZlYPnshswrYm4_-10" target="V5TJ8pZlYPnshswrYm4_-12" edge="1">
          <mxGeometry relative="1" as="geometry" />
        </mxCell>
        <mxCell id="V5TJ8pZlYPnshswrYm4_-80" style="edgeStyle=orthogonalEdgeStyle;rounded=0;orthogonalLoop=1;jettySize=auto;html=1;endArrow=none;startFill=0;" parent="1" source="V5TJ8pZlYPnshswrYm4_-2" target="V5TJ8pZlYPnshswrYm4_-77" edge="1">
          <mxGeometry relative="1" as="geometry" />
        </mxCell>
        <mxCell id="V5TJ8pZlYPnshswrYm4_-81" style="edgeStyle=orthogonalEdgeStyle;rounded=0;orthogonalLoop=1;jettySize=auto;html=1;endArrow=none;startFill=0;" parent="1" source="V5TJ8pZlYPnshswrYm4_-2" target="V5TJ8pZlYPnshswrYm4_-36" edge="1">
          <mxGeometry relative="1" as="geometry" />
        </mxCell>
        <mxCell id="V5TJ8pZlYPnshswrYm4_-82" value="" style="edgeStyle=orthogonalEdgeStyle;rounded=0;orthogonalLoop=1;jettySize=auto;html=1;entryX=0.491;entryY=0.022;entryDx=0;entryDy=0;entryPerimeter=0;endArrow=none;startFill=0;" parent="1" source="V5TJ8pZlYPnshswrYm4_-35" target="V5TJ8pZlYPnshswrYm4_-11" edge="1">
          <mxGeometry relative="1" as="geometry" />
        </mxCell>
        <mxCell id="V5TJ8pZlYPnshswrYm4_-83" value="" style="group" parent="1" vertex="1" connectable="0">
          <mxGeometry x="60" y="370.00422680412373" width="100" height="86.03123711340203" as="geometry" />
        </mxCell>
        <mxCell id="V5TJ8pZlYPnshswrYm4_-11" value="" style="image;aspect=fixed;html=1;points=[];align=center;fontSize=12;image=img/lib/azure2/compute/Virtual_Machine.svg;movable=1;resizable=1;rotatable=1;deletable=1;editable=1;locked=0;connectable=1;" parent="V5TJ8pZlYPnshswrYm4_-83" vertex="1">
          <mxGeometry x="15.5" width="69" height="64" as="geometry" />
        </mxCell>
        <mxCell id="V5TJ8pZlYPnshswrYm4_-27" value="Beheerder-VM" style="text;html=1;align=center;verticalAlign=middle;resizable=0;points=[];autosize=1;strokeColor=none;fillColor=none;" parent="V5TJ8pZlYPnshswrYm4_-83" vertex="1">
          <mxGeometry y="56.03123711340203" width="100" height="30" as="geometry" />
        </mxCell>
        <mxCell id="V5TJ8pZlYPnshswrYm4_-84" value="" style="edgeStyle=orthogonalEdgeStyle;rounded=0;orthogonalLoop=1;jettySize=auto;html=1;endArrow=none;startFill=0;exitX=0.5;exitY=0.97;exitDx=0;exitDy=0;exitPerimeter=0;" parent="1" source="V5TJ8pZlYPnshswrYm4_-77" target="V5TJ8pZlYPnshswrYm4_-41" edge="1">
          <mxGeometry relative="1" as="geometry" />
        </mxCell>
        <mxCell id="V5TJ8pZlYPnshswrYm4_-86" value="" style="group" parent="1" vertex="1" connectable="0">
          <mxGeometry x="200" y="350.96" width="90" height="98" as="geometry" />
        </mxCell>
        <mxCell id="V5TJ8pZlYPnshswrYm4_-41" value="" style="image;aspect=fixed;html=1;points=[];align=center;fontSize=12;image=img/lib/azure2/databases/SQL_Server.svg;" parent="V5TJ8pZlYPnshswrYm4_-86" vertex="1">
          <mxGeometry x="11" width="68" height="68" as="geometry" />
        </mxCell>
        <mxCell id="V5TJ8pZlYPnshswrYm4_-85" value="SQL Server" style="text;html=1;align=center;verticalAlign=middle;resizable=0;points=[];autosize=1;strokeColor=none;fillColor=none;" parent="V5TJ8pZlYPnshswrYm4_-86" vertex="1">
          <mxGeometry y="68" width="90" height="30" as="geometry" />
        </mxCell>
        <mxCell id="V5TJ8pZlYPnshswrYm4_-87" value="" style="edgeStyle=orthogonalEdgeStyle;rounded=0;orthogonalLoop=1;jettySize=auto;html=1;entryX=0.014;entryY=0.503;entryDx=0;entryDy=0;entryPerimeter=0;endArrow=none;startFill=0;" parent="1" source="V5TJ8pZlYPnshswrYm4_-27" target="V5TJ8pZlYPnshswrYm4_-4" edge="1">
          <mxGeometry relative="1" as="geometry" />
        </mxCell>
        <mxCell id="V5TJ8pZlYPnshswrYm4_-88" value="" style="edgeStyle=orthogonalEdgeStyle;rounded=0;orthogonalLoop=1;jettySize=auto;html=1;entryX=1.014;entryY=0.503;entryDx=0;entryDy=0;entryPerimeter=0;endArrow=none;startFill=0;" parent="1" source="V5TJ8pZlYPnshswrYm4_-85" target="V5TJ8pZlYPnshswrYm4_-4" edge="1">
          <mxGeometry relative="1" as="geometry" />
        </mxCell>
        <mxCell id="V5TJ8pZlYPnshswrYm4_-89" style="edgeStyle=orthogonalEdgeStyle;rounded=0;orthogonalLoop=1;jettySize=auto;html=1;exitX=0.007;exitY=0.414;exitDx=0;exitDy=0;exitPerimeter=0;endArrow=none;startFill=0;" parent="1" source="V5TJ8pZlYPnshswrYm4_-11" target="V5TJ8pZlYPnshswrYm4_-23" edge="1">
          <mxGeometry relative="1" as="geometry">
            <mxPoint x="74.18900000000008" y="352.962226804124" as="sourcePoint" />
            <mxPoint x="600" y="410.75000000000006" as="targetPoint" />
            <Array as="points">
              <mxPoint x="30" y="397" />
              <mxPoint x="30" y="560" />
              <mxPoint x="780" y="560" />
            </Array>
          </mxGeometry>
        </mxCell>
        <mxCell id="V5TJ8pZlYPnshswrYm4_-90" style="edgeStyle=orthogonalEdgeStyle;rounded=0;orthogonalLoop=1;jettySize=auto;html=1;entryX=0.489;entryY=0.995;entryDx=0;entryDy=0;entryPerimeter=0;endArrow=none;startFill=0;exitX=-0.022;exitY=0.305;exitDx=0;exitDy=0;exitPerimeter=0;" parent="1" source="V5TJ8pZlYPnshswrYm4_-11" target="V5TJ8pZlYPnshswrYm4_-25" edge="1">
          <mxGeometry relative="1" as="geometry">
            <mxPoint x="70" y="350" as="sourcePoint" />
            <Array as="points">
              <mxPoint x="10" y="389" />
              <mxPoint x="10" y="590" />
              <mxPoint x="1049" y="590" />
            </Array>
          </mxGeometry>
        </mxCell>
        <mxCell id="V5TJ8pZlYPnshswrYm4_-34" value="" style="group" parent="1" vertex="1" connectable="0">
          <mxGeometry x="1390" y="350" width="80" height="105.96" as="geometry" />
        </mxCell>
        <mxCell id="V5TJ8pZlYPnshswrYm4_-1" value="" style="image;aspect=fixed;html=1;points=[];align=center;fontSize=12;image=img/lib/azure2/networking/Firewalls.svg;" parent="V5TJ8pZlYPnshswrYm4_-34" vertex="1">
          <mxGeometry width="71" height="60" as="geometry" />
        </mxCell>
        <mxCell id="V5TJ8pZlYPnshswrYm4_-33" value="Firewall" style="text;html=1;align=center;verticalAlign=middle;resizable=0;points=[];autosize=1;strokeColor=none;fillColor=none;" parent="V5TJ8pZlYPnshswrYm4_-34" vertex="1">
          <mxGeometry x="6.19718309859155" y="71.02813186813187" width="60" height="30" as="geometry" />
        </mxCell>
        <mxCell id="V5TJ8pZlYPnshswrYm4_-98" style="edgeStyle=orthogonalEdgeStyle;rounded=0;orthogonalLoop=1;jettySize=auto;html=1;strokeWidth=2;" parent="1" source="V5TJ8pZlYPnshswrYm4_-12" target="V5TJ8pZlYPnshswrYm4_-41" edge="1">
          <mxGeometry relative="1" as="geometry" />
        </mxCell>
        <mxCell id="V5TJ8pZlYPnshswrYm4_-99" style="edgeStyle=orthogonalEdgeStyle;rounded=0;orthogonalLoop=1;jettySize=auto;html=1;entryX=0.969;entryY=0.415;entryDx=0;entryDy=0;entryPerimeter=0;strokeWidth=2;exitX=0;exitY=0.5;exitDx=0;exitDy=0;" parent="1" source="V5TJ8pZlYPnshswrYm4_-75" target="V5TJ8pZlYPnshswrYm4_-14" edge="1">
          <mxGeometry relative="1" as="geometry" />
        </mxCell>
        <mxCell id="V5TJ8pZlYPnshswrYm4_-109" value="" style="rounded=0;whiteSpace=wrap;html=1;fillColor=#f8cecc;strokeColor=#b85450;" parent="1" vertex="1">
          <mxGeometry x="180" y="200" width="200" height="94.17" as="geometry" />
        </mxCell>
        <mxCell id="V5TJ8pZlYPnshswrYm4_-103" value="" style="group" parent="1" vertex="1" connectable="0">
          <mxGeometry x="310" y="210" width="50" height="74.17" as="geometry" />
        </mxCell>
        <mxCell id="V5TJ8pZlYPnshswrYm4_-104" value="" style="image;aspect=fixed;html=1;points=[];align=center;fontSize=12;image=img/lib/azure2/networking/Network_Security_Groups.svg;" parent="V5TJ8pZlYPnshswrYm4_-103" vertex="1">
          <mxGeometry x="2.696666666666488" width="39.31294919013108" height="47.73715258801631" as="geometry" />
        </mxCell>
        <mxCell id="V5TJ8pZlYPnshswrYm4_-105" value="NSG" style="text;html=1;align=center;verticalAlign=middle;resizable=0;points=[];autosize=1;strokeColor=none;fillColor=none;" parent="V5TJ8pZlYPnshswrYm4_-103" vertex="1">
          <mxGeometry y="47.73421527860283" width="50" height="30" as="geometry" />
        </mxCell>
        <mxCell id="V5TJ8pZlYPnshswrYm4_-79" value="" style="group" parent="1" vertex="1" connectable="0">
          <mxGeometry x="180" y="220" width="130" height="80.72000000000003" as="geometry" />
        </mxCell>
        <mxCell id="V5TJ8pZlYPnshswrYm4_-77" value="" style="image;aspect=fixed;html=1;points=[];align=center;fontSize=12;image=img/lib/azure2/networking/Subnet.svg;" parent="V5TJ8pZlYPnshswrYm4_-79" vertex="1">
          <mxGeometry x="31" width="68" height="40.72" as="geometry" />
        </mxCell>
        <mxCell id="V5TJ8pZlYPnshswrYm4_-78" value="Subnet SQL Server&lt;div&gt;&lt;br&gt;&lt;/div&gt;" style="text;html=1;align=center;verticalAlign=middle;resizable=0;points=[];autosize=1;strokeColor=none;fillColor=none;" parent="V5TJ8pZlYPnshswrYm4_-79" vertex="1">
          <mxGeometry y="40.72000000000003" width="130" height="40" as="geometry" />
        </mxCell>
        <mxCell id="V5TJ8pZlYPnshswrYm4_-115" value="" style="group" parent="1" vertex="1" connectable="0">
          <mxGeometry x="1160" y="282.5" width="175" height="230" as="geometry" />
        </mxCell>
        <mxCell id="cL_ENnGvwndegIb7k_6S-76" value="" style="group" parent="V5TJ8pZlYPnshswrYm4_-115" vertex="1" connectable="0">
          <mxGeometry x="20" y="-2.5" width="170" height="230" as="geometry" />
        </mxCell>
        <mxCell id="V5TJ8pZlYPnshswrYm4_-75" value="" style="rounded=0;whiteSpace=wrap;html=1;fillColor=#ffe6cc;strokeColor=#d79b00;" parent="cL_ENnGvwndegIb7k_6S-76" vertex="1">
          <mxGeometry width="170" height="230" as="geometry" />
        </mxCell>
        <mxCell id="V5TJ8pZlYPnshswrYm4_-48" value="" style="group" parent="cL_ENnGvwndegIb7k_6S-76" vertex="1" connectable="0">
          <mxGeometry x="21" y="81.90205263157894" width="110" height="39.55421052631578" as="geometry" />
        </mxCell>
        <mxCell id="V5TJ8pZlYPnshswrYm4_-15" value="" style="image;aspect=fixed;html=1;points=[];align=center;fontSize=12;image=img/lib/azure2/identity/Entra_Verified_ID.svg;" parent="V5TJ8pZlYPnshswrYm4_-48" vertex="1">
          <mxGeometry x="21" width="34.89473684210526" height="31.015263157894736" as="geometry" />
        </mxCell>
        <mxCell id="V5TJ8pZlYPnshswrYm4_-47" value="Verified Entra ID" style="text;html=1;align=center;verticalAlign=middle;resizable=0;points=[];autosize=1;strokeColor=none;fillColor=none;" parent="V5TJ8pZlYPnshswrYm4_-48" vertex="1">
          <mxGeometry y="24.159473684210514" width="110" height="30" as="geometry" />
        </mxCell>
        <mxCell id="V5TJ8pZlYPnshswrYm4_-18" value="" style="group" parent="cL_ENnGvwndegIb7k_6S-76" vertex="1" connectable="0">
          <mxGeometry x="30" y="16.585263157894733" width="100" height="44.624210526315785" as="geometry" />
        </mxCell>
        <mxCell id="V5TJ8pZlYPnshswrYm4_-16" value="" style="image;aspect=fixed;html=1;points=[];align=center;fontSize=12;image=img/lib/azure2/identity/Entra_ID_Protection.svg;" parent="V5TJ8pZlYPnshswrYm4_-18" vertex="1">
          <mxGeometry x="21.666666666666668" width="29.078947368421055" height="25.846052631578953" as="geometry" />
        </mxCell>
        <mxCell id="V5TJ8pZlYPnshswrYm4_-17" value="Entra ID Protection" style="text;html=1;align=center;verticalAlign=middle;resizable=0;points=[];autosize=1;strokeColor=none;fillColor=none;" parent="V5TJ8pZlYPnshswrYm4_-18" vertex="1">
          <mxGeometry y="29.749473684210525" width="120" height="30" as="geometry" />
        </mxCell>
        <mxCell id="cL_ENnGvwndegIb7k_6S-73" value="" style="group" parent="cL_ENnGvwndegIb7k_6S-76" vertex="1" connectable="0">
          <mxGeometry x="11" y="137.5" width="120" height="71.99" as="geometry" />
        </mxCell>
        <mxCell id="cL_ENnGvwndegIb7k_6S-74" value="" style="image;aspect=fixed;html=1;points=[];align=center;fontSize=12;image=img/lib/azure2/security/Multifactor_Authentication.svg;" parent="cL_ENnGvwndegIb7k_6S-73" vertex="1">
          <mxGeometry x="39.224999999999966" width="38.173876990741384" height="46.85602229910494" as="geometry" />
        </mxCell>
        <mxCell id="cL_ENnGvwndegIb7k_6S-75" value="Multi Factor Authentication" style="text;html=1;align=center;verticalAlign=middle;resizable=0;points=[];autosize=1;strokeColor=none;fillColor=none;" parent="cL_ENnGvwndegIb7k_6S-73" vertex="1">
          <mxGeometry y="50.81439454848514" width="160" height="30" as="geometry" />
        </mxCell>
        <mxCell id="V5TJ8pZlYPnshswrYm4_-120" value="" style="edgeStyle=orthogonalEdgeStyle;rounded=0;orthogonalLoop=1;jettySize=auto;html=1;entryX=1;entryY=0.5;entryDx=0;entryDy=0;strokeWidth=2;" parent="1" source="V5TJ8pZlYPnshswrYm4_-1" target="V5TJ8pZlYPnshswrYm4_-75" edge="1">
          <mxGeometry relative="1" as="geometry" />
        </mxCell>
        <mxCell id="V5TJ8pZlYPnshswrYm4_-123" value="" style="group" parent="1" vertex="1" connectable="0">
          <mxGeometry x="1519.72" y="520" width="110" height="118" as="geometry" />
        </mxCell>
        <mxCell id="V5TJ8pZlYPnshswrYm4_-121" value="" style="sketch=0;aspect=fixed;pointerEvents=1;shadow=0;dashed=0;html=1;strokeColor=none;labelPosition=center;verticalLabelPosition=bottom;verticalAlign=top;align=center;fillColor=#00188D;shape=mxgraph.azure.computer" parent="V5TJ8pZlYPnshswrYm4_-123" vertex="1">
          <mxGeometry x="10" width="83.33" height="75" as="geometry" />
        </mxCell>
        <mxCell id="V5TJ8pZlYPnshswrYm4_-122" value="Beheerder Thuis" style="text;html=1;align=center;verticalAlign=middle;resizable=0;points=[];autosize=1;strokeColor=none;fillColor=none;" parent="V5TJ8pZlYPnshswrYm4_-123" vertex="1">
          <mxGeometry y="88" width="110" height="30" as="geometry" />
        </mxCell>
        <mxCell id="V5TJ8pZlYPnshswrYm4_-137" value="" style="group" parent="1" vertex="1" connectable="0">
          <mxGeometry x="684.5" y="203.04000000000005" width="200" height="91.13" as="geometry" />
        </mxCell>
        <mxCell id="V5TJ8pZlYPnshswrYm4_-139" value="" style="group" parent="V5TJ8pZlYPnshswrYm4_-137" vertex="1" connectable="0">
          <mxGeometry width="200" height="91.12999999999997" as="geometry" />
        </mxCell>
        <mxCell id="V5TJ8pZlYPnshswrYm4_-110" value="" style="rounded=0;whiteSpace=wrap;html=1;fillColor=#f8cecc;strokeColor=#b85450;" parent="V5TJ8pZlYPnshswrYm4_-139" vertex="1">
          <mxGeometry width="200" height="90" as="geometry" />
        </mxCell>
        <mxCell id="V5TJ8pZlYPnshswrYm4_-40" value="" style="group" parent="V5TJ8pZlYPnshswrYm4_-139" vertex="1" connectable="0">
          <mxGeometry x="20" y="20.40999999999991" width="80" height="70.72000000000006" as="geometry" />
        </mxCell>
        <mxCell id="V5TJ8pZlYPnshswrYm4_-3" value="" style="image;aspect=fixed;html=1;points=[];align=center;fontSize=12;image=img/lib/azure2/networking/Subnet.svg;" parent="V5TJ8pZlYPnshswrYm4_-40" vertex="1">
          <mxGeometry x="6" width="68" height="40.72" as="geometry" />
        </mxCell>
        <mxCell id="V5TJ8pZlYPnshswrYm4_-39" value="Subnet API" style="text;html=1;align=center;verticalAlign=middle;resizable=0;points=[];autosize=1;strokeColor=none;fillColor=none;" parent="V5TJ8pZlYPnshswrYm4_-40" vertex="1">
          <mxGeometry y="40.72000000000003" width="80" height="30" as="geometry" />
        </mxCell>
        <mxCell id="V5TJ8pZlYPnshswrYm4_-100" value="" style="group" parent="V5TJ8pZlYPnshswrYm4_-139" vertex="1" connectable="0">
          <mxGeometry x="110" y="6.729999999999933" width="50" height="84.17000000000002" as="geometry" />
        </mxCell>
        <mxCell id="V5TJ8pZlYPnshswrYm4_-101" value="" style="image;aspect=fixed;html=1;points=[];align=center;fontSize=12;image=img/lib/azure2/networking/Network_Security_Groups.svg;" parent="V5TJ8pZlYPnshswrYm4_-100" vertex="1">
          <mxGeometry x="2.696666666666488" width="44.61333333333334" height="54.17333333333333" as="geometry" />
        </mxCell>
        <mxCell id="V5TJ8pZlYPnshswrYm4_-102" value="NSG" style="text;html=1;align=center;verticalAlign=middle;resizable=0;points=[];autosize=1;strokeColor=none;fillColor=none;" parent="V5TJ8pZlYPnshswrYm4_-100" vertex="1">
          <mxGeometry y="54.170000000000016" width="50" height="30" as="geometry" />
        </mxCell>
        <mxCell id="V5TJ8pZlYPnshswrYm4_-138" value="" style="group" parent="1" vertex="1" connectable="0">
          <mxGeometry x="950" y="200" width="200" height="93.28" as="geometry" />
        </mxCell>
        <mxCell id="V5TJ8pZlYPnshswrYm4_-112" value="" style="rounded=0;whiteSpace=wrap;html=1;fillColor=#f8cecc;strokeColor=#b85450;" parent="V5TJ8pZlYPnshswrYm4_-138" vertex="1">
          <mxGeometry width="200" height="93.28" as="geometry" />
        </mxCell>
        <mxCell id="V5TJ8pZlYPnshswrYm4_-45" value="" style="group" parent="V5TJ8pZlYPnshswrYm4_-138" vertex="1" connectable="0">
          <mxGeometry x="10" y="15.829999999999984" width="120" height="70.72000000000003" as="geometry" />
        </mxCell>
        <mxCell id="V5TJ8pZlYPnshswrYm4_-37" value="" style="image;aspect=fixed;html=1;points=[];align=center;fontSize=12;image=img/lib/azure2/networking/Subnet.svg;" parent="V5TJ8pZlYPnshswrYm4_-45" vertex="1">
          <mxGeometry x="26" width="68" height="40.72" as="geometry" />
        </mxCell>
        <mxCell id="V5TJ8pZlYPnshswrYm4_-44" value="Subnet Webserver" style="text;html=1;align=center;verticalAlign=middle;resizable=0;points=[];autosize=1;strokeColor=none;fillColor=none;" parent="V5TJ8pZlYPnshswrYm4_-45" vertex="1">
          <mxGeometry y="40.72000000000003" width="120" height="30" as="geometry" />
        </mxCell>
        <mxCell id="V5TJ8pZlYPnshswrYm4_-97" value="" style="group" parent="V5TJ8pZlYPnshswrYm4_-138" vertex="1" connectable="0">
          <mxGeometry x="120.00000000000023" y="9.109999999999985" width="50" height="84.17000000000002" as="geometry" />
        </mxCell>
        <mxCell id="V5TJ8pZlYPnshswrYm4_-5" value="" style="image;aspect=fixed;html=1;points=[];align=center;fontSize=12;image=img/lib/azure2/networking/Network_Security_Groups.svg;" parent="V5TJ8pZlYPnshswrYm4_-97" vertex="1">
          <mxGeometry x="2.696666666666488" width="44.61333333333334" height="54.17333333333333" as="geometry" />
        </mxCell>
        <mxCell id="V5TJ8pZlYPnshswrYm4_-95" value="NSG" style="text;html=1;align=center;verticalAlign=middle;resizable=0;points=[];autosize=1;strokeColor=none;fillColor=none;" parent="V5TJ8pZlYPnshswrYm4_-97" vertex="1">
          <mxGeometry y="54.170000000000016" width="50" height="30" as="geometry" />
        </mxCell>
        <mxCell id="V5TJ8pZlYPnshswrYm4_-142" style="edgeStyle=orthogonalEdgeStyle;rounded=0;orthogonalLoop=1;jettySize=auto;html=1;strokeWidth=2;strokeColor=#FF0000;entryX=1;entryY=0.5;entryDx=0;entryDy=0;exitX=1;exitY=0.5;exitDx=0;exitDy=0;exitPerimeter=0;" parent="1" source="V5TJ8pZlYPnshswrYm4_-121" target="V5TJ8pZlYPnshswrYm4_-60" edge="1">
          <mxGeometry relative="1" as="geometry" />
        </mxCell>
        <mxCell id="V5TJ8pZlYPnshswrYm4_-144" style="edgeStyle=orthogonalEdgeStyle;rounded=0;orthogonalLoop=1;jettySize=auto;html=1;strokeColor=#FF0000;strokeWidth=2;entryX=1.042;entryY=0.548;entryDx=0;entryDy=0;entryPerimeter=0;" parent="1" source="V5TJ8pZlYPnshswrYm4_-61" target="V5TJ8pZlYPnshswrYm4_-147" edge="1">
          <mxGeometry relative="1" as="geometry">
            <mxPoint x="1425" y="450" as="sourcePoint" />
            <mxPoint x="551" y="490" as="targetPoint" />
            <Array as="points">
              <mxPoint x="1575" y="500" />
              <mxPoint x="1430" y="500" />
              <mxPoint x="1430" y="539" />
              <mxPoint x="454" y="539" />
            </Array>
          </mxGeometry>
        </mxCell>
        <mxCell id="V5TJ8pZlYPnshswrYm4_-148" style="edgeStyle=orthogonalEdgeStyle;rounded=0;orthogonalLoop=1;jettySize=auto;html=1;entryX=0.489;entryY=0.03;entryDx=0;entryDy=0;entryPerimeter=0;endArrow=none;startFill=0;exitX=0.25;exitY=1;exitDx=0;exitDy=0;" parent="1" source="V5TJ8pZlYPnshswrYm4_-129" target="V5TJ8pZlYPnshswrYm4_-147" edge="1">
          <mxGeometry relative="1" as="geometry">
            <Array as="points">
              <mxPoint x="477" y="410" />
              <mxPoint x="400" y="410" />
            </Array>
          </mxGeometry>
        </mxCell>
        <mxCell id="V5TJ8pZlYPnshswrYm4_-149" style="edgeStyle=orthogonalEdgeStyle;rounded=0;orthogonalLoop=1;jettySize=auto;html=1;entryX=1;entryY=0.583;entryDx=0;entryDy=0;entryPerimeter=0;strokeColor=#FF0000;strokeWidth=2;" parent="1" source="V5TJ8pZlYPnshswrYm4_-147" target="V5TJ8pZlYPnshswrYm4_-46" edge="1">
          <mxGeometry relative="1" as="geometry" />
        </mxCell>
        <mxCell id="V5TJ8pZlYPnshswrYm4_-151" value="" style="group" parent="1" vertex="1" connectable="0">
          <mxGeometry x="350" y="486" width="100" height="80" as="geometry" />
        </mxCell>
        <mxCell id="V5TJ8pZlYPnshswrYm4_-147" value="" style="image;sketch=0;aspect=fixed;html=1;points=[];align=center;fontSize=12;image=img/lib/mscae/VPN_Gateway.svg;" parent="V5TJ8pZlYPnshswrYm4_-151" vertex="1">
          <mxGeometry x="27.5" width="45" height="50" as="geometry" />
        </mxCell>
        <mxCell id="V5TJ8pZlYPnshswrYm4_-150" value="VPN Gateway" style="text;html=1;align=center;verticalAlign=middle;resizable=0;points=[];autosize=1;strokeColor=none;fillColor=none;" parent="V5TJ8pZlYPnshswrYm4_-151" vertex="1">
          <mxGeometry y="50" width="100" height="30" as="geometry" />
        </mxCell>
        <mxCell id="V5TJ8pZlYPnshswrYm4_-155" value="" style="endArrow=none;html=1;rounded=0;strokeWidth=3;dashed=1;dashPattern=8 8;strokeColor=#00FF00;" parent="1" edge="1">
          <mxGeometry width="50" height="50" relative="1" as="geometry">
            <mxPoint x="894" y="660" as="sourcePoint" />
            <mxPoint x="1160" y="10" as="targetPoint" />
            <Array as="points">
              <mxPoint x="894" y="335" />
              <mxPoint x="1160" y="335" />
            </Array>
          </mxGeometry>
        </mxCell>
        <mxCell id="V5TJ8pZlYPnshswrYm4_-156" value="&lt;span style=&quot;font-size: 20px;&quot;&gt;Back-End&lt;/span&gt;" style="text;html=1;align=center;verticalAlign=middle;resizable=0;points=[];autosize=1;strokeColor=none;fillColor=none;" parent="1" vertex="1">
          <mxGeometry x="780" y="10" width="110" height="40" as="geometry" />
        </mxCell>
        <mxCell id="V5TJ8pZlYPnshswrYm4_-157" value="&lt;span style=&quot;font-size: 20px;&quot;&gt;DMZ(Front-End)&lt;/span&gt;" style="text;html=1;align=center;verticalAlign=middle;resizable=0;points=[];autosize=1;strokeColor=none;fillColor=none;" parent="1" vertex="1">
          <mxGeometry x="1175" y="17.5" width="170" height="40" as="geometry" />
        </mxCell>
        <mxCell id="mplnoZpnV6eMV_x-vPS2-1" value="" style="group" parent="1" vertex="1" connectable="0">
          <mxGeometry x="500" y="416.5" width="180" height="96" as="geometry" />
        </mxCell>
        <mxCell id="mplnoZpnV6eMV_x-vPS2-3" value="" style="image;aspect=fixed;html=1;points=[];align=center;fontSize=12;image=img/lib/azure2/networking/Private_Endpoint.svg;" parent="mplnoZpnV6eMV_x-vPS2-1" vertex="1">
          <mxGeometry x="54" width="72" height="66" as="geometry" />
        </mxCell>
        <mxCell id="mplnoZpnV6eMV_x-vPS2-4" value="Private Endpoint Connection" style="text;html=1;align=center;verticalAlign=middle;resizable=0;points=[];autosize=1;strokeColor=none;fillColor=none;" parent="mplnoZpnV6eMV_x-vPS2-1" vertex="1">
          <mxGeometry y="66" width="180" height="30" as="geometry" />
        </mxCell>
        <mxCell id="mplnoZpnV6eMV_x-vPS2-6" style="edgeStyle=orthogonalEdgeStyle;rounded=0;orthogonalLoop=1;jettySize=auto;html=1;entryX=0.979;entryY=0.954;entryDx=0;entryDy=0;entryPerimeter=0;endArrow=none;startFill=0;exitX=0.017;exitY=0.523;exitDx=0;exitDy=0;exitPerimeter=0;" parent="1" source="mplnoZpnV6eMV_x-vPS2-3" target="V5TJ8pZlYPnshswrYm4_-41" edge="1">
          <mxGeometry relative="1" as="geometry" />
        </mxCell>
        <mxCell id="mplnoZpnV6eMV_x-vPS2-7" style="edgeStyle=orthogonalEdgeStyle;rounded=0;orthogonalLoop=1;jettySize=auto;html=1;entryX=0.017;entryY=0.935;entryDx=0;entryDy=0;entryPerimeter=0;endArrow=none;startFill=0;" parent="1" source="mplnoZpnV6eMV_x-vPS2-3" target="V5TJ8pZlYPnshswrYm4_-12" edge="1">
          <mxGeometry relative="1" as="geometry" />
        </mxCell>
        <mxCell id="mplnoZpnV6eMV_x-vPS2-11" value="" style="group" parent="1" vertex="1" connectable="0">
          <mxGeometry x="-10" y="200" width="180" height="92.09000000000003" as="geometry" />
        </mxCell>
        <mxCell id="V5TJ8pZlYPnshswrYm4_-111" value="" style="rounded=0;whiteSpace=wrap;html=1;fillColor=#f8cecc;strokeColor=#b85450;" parent="mplnoZpnV6eMV_x-vPS2-11" vertex="1">
          <mxGeometry x="10" width="170" height="92.09" as="geometry" />
        </mxCell>
        <mxCell id="V5TJ8pZlYPnshswrYm4_-38" value="" style="group" parent="mplnoZpnV6eMV_x-vPS2-11" vertex="1" connectable="0">
          <mxGeometry y="9.995909999999839" width="120" height="72.36227555555558" as="geometry" />
        </mxCell>
        <mxCell id="V5TJ8pZlYPnshswrYm4_-35" value="Subnet Beheerder" style="text;html=1;align=center;verticalAlign=middle;resizable=0;points=[];autosize=1;strokeColor=none;fillColor=none;" parent="V5TJ8pZlYPnshswrYm4_-38" vertex="1">
          <mxGeometry y="41.66560888888892" width="120" height="30" as="geometry" />
        </mxCell>
        <mxCell id="V5TJ8pZlYPnshswrYm4_-36" value="" style="image;aspect=fixed;html=1;points=[];align=center;fontSize=12;image=img/lib/azure2/networking/Subnet.svg;" parent="V5TJ8pZlYPnshswrYm4_-38" vertex="1">
          <mxGeometry x="26" width="61.339210500538734" height="36.73136252326378" as="geometry" />
        </mxCell>
        <mxCell id="V5TJ8pZlYPnshswrYm4_-107" value="" style="image;aspect=fixed;html=1;points=[];align=center;fontSize=12;image=img/lib/azure2/networking/Network_Security_Groups.svg;" parent="mplnoZpnV6eMV_x-vPS2-11" vertex="1">
          <mxGeometry x="122.69666666666649" y="7.663687777777739" width="35.46213626132992" height="43.061165460186324" as="geometry" />
        </mxCell>
        <mxCell id="V5TJ8pZlYPnshswrYm4_-108" value="NSG" style="text;html=1;align=center;verticalAlign=middle;resizable=0;points=[];autosize=1;strokeColor=none;fillColor=none;" parent="mplnoZpnV6eMV_x-vPS2-11" vertex="1">
          <mxGeometry x="120" y="56.50639761118373" width="50" height="30" as="geometry" />
        </mxCell>
        <mxCell id="V5TJ8pZlYPnshswrYm4_-129" value="" style="rounded=0;whiteSpace=wrap;html=1;fillColor=#f8cecc;strokeColor=#b85450;" parent="1" vertex="1">
          <mxGeometry x="422.5" y="200" width="188.88888888888889" height="90" as="geometry" />
        </mxCell>
        <mxCell id="V5TJ8pZlYPnshswrYm4_-130" value="" style="group" parent="1" vertex="1" connectable="0">
          <mxGeometry x="552.5011111111111" y="199.99999999999997" width="55.55555555555556" height="74.17" as="geometry" />
        </mxCell>
        <mxCell id="V5TJ8pZlYPnshswrYm4_-131" value="" style="image;aspect=fixed;html=1;points=[];align=center;fontSize=12;image=img/lib/azure2/networking/Network_Security_Groups.svg;" parent="V5TJ8pZlYPnshswrYm4_-130" vertex="1">
          <mxGeometry x="8.18" y="10" width="39.2" height="47.6" as="geometry" />
        </mxCell>
        <mxCell id="V5TJ8pZlYPnshswrYm4_-132" value="NSG" style="text;html=1;align=center;verticalAlign=middle;resizable=0;points=[];autosize=1;strokeColor=none;fillColor=none;" parent="V5TJ8pZlYPnshswrYm4_-130" vertex="1">
          <mxGeometry y="47.73421527860283" width="50" height="30" as="geometry" />
        </mxCell>
        <mxCell id="V5TJ8pZlYPnshswrYm4_-134" value="Subnet VPN Gateway" style="text;html=1;align=center;verticalAlign=middle;resizable=0;points=[];autosize=1;strokeColor=none;fillColor=none;" parent="1" vertex="1">
          <mxGeometry x="422.50444444444446" y="252.07999999999987" width="140" height="30" as="geometry" />
        </mxCell>
        <mxCell id="V5TJ8pZlYPnshswrYm4_-135" value="" style="image;aspect=fixed;html=1;points=[];align=center;fontSize=12;image=img/lib/azure2/networking/Subnet.svg;" parent="1" vertex="1">
          <mxGeometry x="442.50444444444446" y="207.90999999999985" width="68" height="40.72" as="geometry" />
        </mxCell>
        <mxCell id="x1OhzLyurRD70b-yP-LV-7" value="" style="group" vertex="1" connectable="0" parent="1">
          <mxGeometry x="60" y="680" width="1450" height="276.03" as="geometry" />
        </mxCell>
        <mxCell id="V5TJ8pZlYPnshswrYm4_-158" value="" style="rounded=0;whiteSpace=wrap;html=1;" parent="x1OhzLyurRD70b-yP-LV-7" vertex="1">
          <mxGeometry width="1450" height="270" as="geometry" />
        </mxCell>
        <mxCell id="V5TJ8pZlYPnshswrYm4_-159" value="Legenda" style="text;html=1;align=center;verticalAlign=middle;resizable=0;points=[];autosize=1;fontSize=30;strokeColor=default;" parent="x1OhzLyurRD70b-yP-LV-7" vertex="1">
          <mxGeometry x="673.21" width="140" height="50" as="geometry" />
        </mxCell>
        <mxCell id="cL_ENnGvwndegIb7k_6S-1" value="" style="group" parent="x1OhzLyurRD70b-yP-LV-7" vertex="1" connectable="0">
          <mxGeometry x="23.214285714285722" y="60" width="116.07142857142858" height="98" as="geometry" />
        </mxCell>
        <mxCell id="cL_ENnGvwndegIb7k_6S-2" value="" style="sketch=0;aspect=fixed;pointerEvents=1;shadow=0;dashed=0;html=1;strokeColor=none;labelPosition=center;verticalLabelPosition=bottom;verticalAlign=top;align=center;fillColor=#00188D;shape=mxgraph.azure.computer" parent="cL_ENnGvwndegIb7k_6S-1" vertex="1">
          <mxGeometry x="10.551948051948052" width="69.20627118644067" height="62.28813559322034" as="geometry" />
        </mxCell>
        <mxCell id="cL_ENnGvwndegIb7k_6S-3" value="Beheerder Thuis" style="text;html=1;align=center;verticalAlign=middle;resizable=0;points=[];autosize=1;strokeColor=none;fillColor=none;" parent="cL_ENnGvwndegIb7k_6S-1" vertex="1">
          <mxGeometry y="73.08474576271186" width="110" height="30" as="geometry" />
        </mxCell>
        <mxCell id="cL_ENnGvwndegIb7k_6S-4" value="" style="group" parent="x1OhzLyurRD70b-yP-LV-7" vertex="1" connectable="0">
          <mxGeometry x="29.01785714285714" y="170" width="116.07142857142858" height="86.03123711340203" as="geometry" />
        </mxCell>
        <mxCell id="cL_ENnGvwndegIb7k_6S-5" value="" style="image;aspect=fixed;html=1;points=[];align=center;fontSize=12;image=img/lib/azure2/compute/Virtual_Machine.svg;movable=1;resizable=1;rotatable=1;deletable=1;editable=1;locked=0;connectable=1;" parent="cL_ENnGvwndegIb7k_6S-4" vertex="1">
          <mxGeometry x="17.99107142857143" width="69" height="64" as="geometry" />
        </mxCell>
        <mxCell id="cL_ENnGvwndegIb7k_6S-6" value="VM" style="text;html=1;align=center;verticalAlign=middle;resizable=0;points=[];autosize=1;strokeColor=none;fillColor=none;" parent="cL_ENnGvwndegIb7k_6S-4" vertex="1">
          <mxGeometry x="34.82142857142858" y="56.03123711340203" width="40" height="30" as="geometry" />
        </mxCell>
        <mxCell id="cL_ENnGvwndegIb7k_6S-7" value="" style="group" parent="x1OhzLyurRD70b-yP-LV-7" vertex="1" connectable="0">
          <mxGeometry x="162.5" y="69.62" width="103.80371660859474" height="86.34146341463418" as="geometry" />
        </mxCell>
        <mxCell id="cL_ENnGvwndegIb7k_6S-8" value="" style="image;aspect=fixed;perimeter=ellipsePerimeter;html=1;align=center;shadow=0;dashed=0;spacingTop=3;image=img/lib/active_directory/internet_cloud.svg;container=0;" parent="cL_ENnGvwndegIb7k_6S-7" vertex="1">
          <mxGeometry width="89.43089430894308" height="56.34146341463415" as="geometry" />
        </mxCell>
        <mxCell id="cL_ENnGvwndegIb7k_6S-9" value="Internet" style="text;html=1;align=center;verticalAlign=middle;resizable=0;points=[];autosize=1;strokeColor=none;fillColor=none;container=0;" parent="cL_ENnGvwndegIb7k_6S-7" vertex="1">
          <mxGeometry x="17.085714285714317" y="56.34146341463418" width="60" height="30" as="geometry" />
        </mxCell>
        <mxCell id="cL_ENnGvwndegIb7k_6S-10" value="" style="group" parent="x1OhzLyurRD70b-yP-LV-7" vertex="1" connectable="0">
          <mxGeometry x="174.1071428571429" y="160" width="92.85714285714286" height="105.96" as="geometry" />
        </mxCell>
        <mxCell id="cL_ENnGvwndegIb7k_6S-11" value="" style="image;aspect=fixed;html=1;points=[];align=center;fontSize=12;image=img/lib/azure2/networking/Firewalls.svg;" parent="cL_ENnGvwndegIb7k_6S-10" vertex="1">
          <mxGeometry width="71" height="60" as="geometry" />
        </mxCell>
        <mxCell id="cL_ENnGvwndegIb7k_6S-12" value="Firewall" style="text;html=1;align=center;verticalAlign=middle;resizable=0;points=[];autosize=1;strokeColor=none;fillColor=none;" parent="cL_ENnGvwndegIb7k_6S-10" vertex="1">
          <mxGeometry x="7.193158953722335" y="71.02813186813187" width="60" height="30" as="geometry" />
        </mxCell>
        <mxCell id="cL_ENnGvwndegIb7k_6S-13" value="" style="group" parent="x1OhzLyurRD70b-yP-LV-7" vertex="1" connectable="0">
          <mxGeometry x="266.9642857142857" y="54.91999999999996" width="139.2857142857143" height="125.96" as="geometry" />
        </mxCell>
        <mxCell id="cL_ENnGvwndegIb7k_6S-14" value="" style="verticalLabelPosition=bottom;html=1;verticalAlign=top;align=center;strokeColor=none;fillColor=#00BEF2;shape=mxgraph.azure.computer;pointerEvents=1;" parent="cL_ENnGvwndegIb7k_6S-13" vertex="1">
          <mxGeometry x="26.11607142857143" width="87.05357142857143" height="75.576" as="geometry" />
        </mxCell>
        <mxCell id="cL_ENnGvwndegIb7k_6S-15" value="Computer" style="text;html=1;align=center;verticalAlign=middle;resizable=0;points=[];autosize=1;strokeColor=none;fillColor=none;" parent="cL_ENnGvwndegIb7k_6S-13" vertex="1">
          <mxGeometry x="23.214285714285715" y="75.576" width="80" height="30" as="geometry" />
        </mxCell>
        <mxCell id="cL_ENnGvwndegIb7k_6S-19" value="" style="group" parent="x1OhzLyurRD70b-yP-LV-7" vertex="1" connectable="0">
          <mxGeometry x="290.17857142857144" y="180" width="92.85714285714286" height="96.03" as="geometry" />
        </mxCell>
        <mxCell id="cL_ENnGvwndegIb7k_6S-21" value="Tablet" style="text;html=1;align=center;verticalAlign=middle;resizable=0;points=[];autosize=1;strokeColor=none;fillColor=none;" parent="cL_ENnGvwndegIb7k_6S-19" vertex="1">
          <mxGeometry y="53.34999999999999" width="60" height="30" as="geometry" />
        </mxCell>
        <mxCell id="cL_ENnGvwndegIb7k_6S-20" value="" style="verticalLabelPosition=bottom;html=1;verticalAlign=top;align=center;strokeColor=none;fillColor=#00BEF2;shape=mxgraph.azure.tablet;pointerEvents=1;" parent="cL_ENnGvwndegIb7k_6S-19" vertex="1">
          <mxGeometry x="7.738095238095238" y="8.330602500000065" width="77.38095238095238" height="45.0140625" as="geometry" />
        </mxCell>
        <mxCell id="cL_ENnGvwndegIb7k_6S-26" value="" style="group" parent="x1OhzLyurRD70b-yP-LV-7" vertex="1" connectable="0">
          <mxGeometry x="410.8928571428571" y="208.24" width="127.67857142857144" height="39.55421052631578" as="geometry" />
        </mxCell>
        <mxCell id="cL_ENnGvwndegIb7k_6S-27" value="" style="image;aspect=fixed;html=1;points=[];align=center;fontSize=12;image=img/lib/azure2/identity/Entra_Verified_ID.svg;" parent="cL_ENnGvwndegIb7k_6S-26" vertex="1">
          <mxGeometry x="24.375000000000004" y="-30" width="68.65" height="61.02" as="geometry" />
        </mxCell>
        <mxCell id="cL_ENnGvwndegIb7k_6S-28" value="Verified Entra ID" style="text;html=1;align=center;verticalAlign=middle;resizable=0;points=[];autosize=1;strokeColor=none;fillColor=none;" parent="cL_ENnGvwndegIb7k_6S-26" vertex="1">
          <mxGeometry y="24.159473684210514" width="110" height="30" as="geometry" />
        </mxCell>
        <mxCell id="cL_ENnGvwndegIb7k_6S-29" value="" style="group" parent="x1OhzLyurRD70b-yP-LV-7" vertex="1" connectable="0">
          <mxGeometry x="545.5357142857143" y="60" width="127.67857142857144" height="94" as="geometry" />
        </mxCell>
        <mxCell id="cL_ENnGvwndegIb7k_6S-30" value="" style="image;aspect=fixed;html=1;points=[];align=center;fontSize=12;image=img/lib/azure2/app_services/App_Services.svg;" parent="cL_ENnGvwndegIb7k_6S-29" vertex="1">
          <mxGeometry x="26.696428571428573" width="64" height="64" as="geometry" />
        </mxCell>
        <mxCell id="cL_ENnGvwndegIb7k_6S-31" value="Web Application" style="text;html=1;align=center;verticalAlign=middle;resizable=0;points=[];autosize=1;strokeColor=none;fillColor=none;" parent="cL_ENnGvwndegIb7k_6S-29" vertex="1">
          <mxGeometry y="64" width="110" height="30" as="geometry" />
        </mxCell>
        <mxCell id="cL_ENnGvwndegIb7k_6S-32" value="" style="group" parent="x1OhzLyurRD70b-yP-LV-7" vertex="1" connectable="0">
          <mxGeometry x="568.75" y="170" width="75.44642857142858" height="94" as="geometry" />
        </mxCell>
        <mxCell id="cL_ENnGvwndegIb7k_6S-33" value="" style="image;aspect=fixed;html=1;points=[];align=center;fontSize=12;image=img/lib/azure2/app_services/API_Management_Services.svg;" parent="cL_ENnGvwndegIb7k_6S-32" vertex="1">
          <mxGeometry width="65" height="60" as="geometry" />
        </mxCell>
        <mxCell id="cL_ENnGvwndegIb7k_6S-34" value="APIM" style="text;html=1;align=center;verticalAlign=middle;resizable=0;points=[];autosize=1;strokeColor=none;fillColor=none;" parent="cL_ENnGvwndegIb7k_6S-32" vertex="1">
          <mxGeometry x="8.705357142857144" y="64" width="50" height="30" as="geometry" />
        </mxCell>
        <mxCell id="cL_ENnGvwndegIb7k_6S-37" value="" style="group" parent="x1OhzLyurRD70b-yP-LV-7" vertex="1" connectable="0">
          <mxGeometry x="655.8035714285714" y="178.72000000000003" width="139.2857142857143" height="76.55" as="geometry" />
        </mxCell>
        <mxCell id="cL_ENnGvwndegIb7k_6S-38" value="" style="image;aspect=fixed;html=1;points=[];align=center;fontSize=12;image=img/lib/azure2/networking/Subnet.svg;" parent="cL_ENnGvwndegIb7k_6S-37" vertex="1">
          <mxGeometry x="30.17857142857143" width="68" height="40.72" as="geometry" />
        </mxCell>
        <mxCell id="cL_ENnGvwndegIb7k_6S-39" value="Subnet" style="text;html=1;align=center;verticalAlign=middle;resizable=0;points=[];autosize=1;strokeColor=none;fillColor=none;" parent="cL_ENnGvwndegIb7k_6S-37" vertex="1">
          <mxGeometry x="34.82142857142858" y="44.07686651583712" width="60" height="30" as="geometry" />
        </mxCell>
        <mxCell id="cL_ENnGvwndegIb7k_6S-40" value="" style="group" parent="x1OhzLyurRD70b-yP-LV-7" vertex="1" connectable="0">
          <mxGeometry x="696.4285714285718" y="70" width="58.03571428571429" height="84.17000000000002" as="geometry" />
        </mxCell>
        <mxCell id="cL_ENnGvwndegIb7k_6S-41" value="" style="image;aspect=fixed;html=1;points=[];align=center;fontSize=12;image=img/lib/azure2/networking/Network_Security_Groups.svg;" parent="cL_ENnGvwndegIb7k_6S-40" vertex="1">
          <mxGeometry x="3.1300595238093165" width="44.61333333333334" height="54.17333333333333" as="geometry" />
        </mxCell>
        <mxCell id="cL_ENnGvwndegIb7k_6S-42" value="NSG" style="text;html=1;align=center;verticalAlign=middle;resizable=0;points=[];autosize=1;strokeColor=none;fillColor=none;" parent="cL_ENnGvwndegIb7k_6S-40" vertex="1">
          <mxGeometry y="54.170000000000016" width="50" height="30" as="geometry" />
        </mxCell>
        <mxCell id="cL_ENnGvwndegIb7k_6S-46" value="" style="group" parent="x1OhzLyurRD70b-yP-LV-7" vertex="1" connectable="0">
          <mxGeometry x="766.0714285714287" y="70" width="116.07142857142858" height="80" as="geometry" />
        </mxCell>
        <mxCell id="cL_ENnGvwndegIb7k_6S-47" value="" style="image;sketch=0;aspect=fixed;html=1;points=[];align=center;fontSize=12;image=img/lib/mscae/VPN_Gateway.svg;" parent="cL_ENnGvwndegIb7k_6S-46" vertex="1">
          <mxGeometry x="31.91964285714286" width="45" height="50" as="geometry" />
        </mxCell>
        <mxCell id="cL_ENnGvwndegIb7k_6S-48" value="VPN Gateway" style="text;html=1;align=center;verticalAlign=middle;resizable=0;points=[];autosize=1;strokeColor=none;fillColor=none;" parent="cL_ENnGvwndegIb7k_6S-46" vertex="1">
          <mxGeometry y="50" width="100" height="30" as="geometry" />
        </mxCell>
        <mxCell id="cL_ENnGvwndegIb7k_6S-49" value="" style="group" parent="x1OhzLyurRD70b-yP-LV-7" vertex="1" connectable="0">
          <mxGeometry x="771.8750000000001" y="160" width="104.46428571428572" height="98" as="geometry" />
        </mxCell>
        <mxCell id="cL_ENnGvwndegIb7k_6S-50" value="" style="image;aspect=fixed;html=1;points=[];align=center;fontSize=12;image=img/lib/azure2/databases/SQL_Server.svg;" parent="cL_ENnGvwndegIb7k_6S-49" vertex="1">
          <mxGeometry x="12.767857142857144" width="68" height="68" as="geometry" />
        </mxCell>
        <mxCell id="cL_ENnGvwndegIb7k_6S-51" value="SQL Server" style="text;html=1;align=center;verticalAlign=middle;resizable=0;points=[];autosize=1;strokeColor=none;fillColor=none;" parent="cL_ENnGvwndegIb7k_6S-49" vertex="1">
          <mxGeometry y="68" width="90" height="30" as="geometry" />
        </mxCell>
        <mxCell id="cL_ENnGvwndegIb7k_6S-56" value="" style="group" parent="x1OhzLyurRD70b-yP-LV-7" vertex="1" connectable="0">
          <mxGeometry x="893.75" y="54" width="162.5" height="96" as="geometry" />
        </mxCell>
        <mxCell id="cL_ENnGvwndegIb7k_6S-58" value="" style="image;aspect=fixed;html=1;points=[];align=center;fontSize=12;image=img/lib/azure2/networking/Private_Endpoint.svg;" parent="cL_ENnGvwndegIb7k_6S-56" vertex="1">
          <mxGeometry x="48.75000000000001" width="56" height="51.333333333333336" as="geometry" />
        </mxCell>
        <mxCell id="cL_ENnGvwndegIb7k_6S-59" value="Private Endpoint Connection" style="text;html=1;align=center;verticalAlign=middle;resizable=0;points=[];autosize=1;strokeColor=none;fillColor=none;" parent="cL_ENnGvwndegIb7k_6S-56" vertex="1">
          <mxGeometry y="66" width="180" height="30" as="geometry" />
        </mxCell>
        <mxCell id="cL_ENnGvwndegIb7k_6S-61" value="" style="group" parent="x1OhzLyurRD70b-yP-LV-7" vertex="1" connectable="0">
          <mxGeometry x="905.3571428571429" y="170" width="174.10714285714286" height="80" as="geometry" />
        </mxCell>
        <mxCell id="cL_ENnGvwndegIb7k_6S-62" value="" style="image;aspect=fixed;html=1;points=[];align=center;fontSize=12;image=img/lib/azure2/networking/Virtual_Networks.svg;" parent="cL_ENnGvwndegIb7k_6S-61" vertex="1">
          <mxGeometry x="34.82142857142858" width="67" height="40" as="geometry" />
        </mxCell>
        <mxCell id="cL_ENnGvwndegIb7k_6S-64" value="Virtual network" style="text;html=1;align=center;verticalAlign=middle;resizable=0;points=[];autosize=1;strokeColor=none;fillColor=none;" parent="cL_ENnGvwndegIb7k_6S-61" vertex="1">
          <mxGeometry x="29.017857142857146" y="50" width="100" height="30" as="geometry" />
        </mxCell>
        <mxCell id="cL_ENnGvwndegIb7k_6S-66" value="" style="group" parent="x1OhzLyurRD70b-yP-LV-7" vertex="1" connectable="0">
          <mxGeometry x="399.28571428571433" y="80" width="139.2857142857143" height="75.84947368421035" as="geometry" />
        </mxCell>
        <mxCell id="cL_ENnGvwndegIb7k_6S-24" value="" style="group" parent="cL_ENnGvwndegIb7k_6S-66" vertex="1" connectable="0">
          <mxGeometry y="20" width="139.2857142857143" height="55.84947368421035" as="geometry" />
        </mxCell>
        <mxCell id="cL_ENnGvwndegIb7k_6S-23" value="Entra ID Protection" style="text;html=1;align=center;verticalAlign=middle;resizable=0;points=[];autosize=1;strokeColor=none;fillColor=none;" parent="cL_ENnGvwndegIb7k_6S-24" vertex="1">
          <mxGeometry y="25.849473684210352" width="120" height="30" as="geometry" />
        </mxCell>
        <mxCell id="cL_ENnGvwndegIb7k_6S-22" value="" style="image;aspect=fixed;html=1;points=[];align=center;fontSize=12;image=img/lib/azure2/identity/Entra_ID_Protection.svg;" parent="cL_ENnGvwndegIb7k_6S-66" vertex="1">
          <mxGeometry x="36.53928571428574" width="57.04" height="50.7" as="geometry" />
        </mxCell>
        <mxCell id="cL_ENnGvwndegIb7k_6S-67" value="" style="group" parent="x1OhzLyurRD70b-yP-LV-7" vertex="1" connectable="0">
          <mxGeometry x="1125.8928571428573" y="70" width="127.67857142857144" height="70" as="geometry" />
        </mxCell>
        <mxCell id="cL_ENnGvwndegIb7k_6S-68" value="" style="image;aspect=fixed;html=1;points=[];align=center;fontSize=12;image=img/lib/azure2/general/Resource_Groups.svg;" parent="cL_ENnGvwndegIb7k_6S-67" vertex="1">
          <mxGeometry x="24.375000000000004" width="47.599999999999994" height="44.8" as="geometry" />
        </mxCell>
        <mxCell id="cL_ENnGvwndegIb7k_6S-69" value="Resource Group" style="text;html=1;align=center;verticalAlign=middle;resizable=0;points=[];autosize=1;strokeColor=none;fillColor=none;" parent="cL_ENnGvwndegIb7k_6S-67" vertex="1">
          <mxGeometry y="49" width="110" height="30" as="geometry" />
        </mxCell>
        <mxCell id="cL_ENnGvwndegIb7k_6S-72" value="" style="group" parent="x1OhzLyurRD70b-yP-LV-7" vertex="1" connectable="0">
          <mxGeometry x="1079.4642857142858" y="150" width="185.71428571428572" height="101.99000000000001" as="geometry" />
        </mxCell>
        <mxCell id="cL_ENnGvwndegIb7k_6S-70" value="" style="image;aspect=fixed;html=1;points=[];align=center;fontSize=12;image=img/lib/azure2/security/Multifactor_Authentication.svg;" parent="cL_ENnGvwndegIb7k_6S-72" vertex="1">
          <mxGeometry x="60.705357142857096" width="55.400000000000006" height="68" as="geometry" />
        </mxCell>
        <mxCell id="cL_ENnGvwndegIb7k_6S-71" value="Multi Factor Authentication" style="text;html=1;align=center;verticalAlign=middle;resizable=0;points=[];autosize=1;strokeColor=none;fillColor=none;" parent="cL_ENnGvwndegIb7k_6S-72" vertex="1">
          <mxGeometry y="71.99000000000001" width="160" height="30" as="geometry" />
        </mxCell>
        <mxCell id="x1OhzLyurRD70b-yP-LV-1" value="" style="endArrow=classic;html=1;rounded=0;strokeWidth=2;strokeColor=#FF0000;" edge="1" parent="x1OhzLyurRD70b-yP-LV-7">
          <mxGeometry width="50" height="50" relative="1" as="geometry">
            <mxPoint x="1330" y="90" as="sourcePoint" />
            <mxPoint x="1280" y="91.77999999999997" as="targetPoint" />
          </mxGeometry>
        </mxCell>
        <mxCell id="x1OhzLyurRD70b-yP-LV-2" value="Toegang&amp;nbsp;&lt;div&gt;Beheerder&lt;/div&gt;" style="edgeLabel;html=1;align=center;verticalAlign=middle;resizable=0;points=[];" vertex="1" connectable="0" parent="x1OhzLyurRD70b-yP-LV-1">
          <mxGeometry x="-0.1214" y="-1" relative="1" as="geometry">
            <mxPoint y="22" as="offset" />
          </mxGeometry>
        </mxCell>
        <mxCell id="x1OhzLyurRD70b-yP-LV-3" value="" style="endArrow=none;html=1;rounded=0;" edge="1" parent="x1OhzLyurRD70b-yP-LV-7">
          <mxGeometry width="50" height="50" relative="1" as="geometry">
            <mxPoint x="1350" y="153.16999999999996" as="sourcePoint" />
            <mxPoint x="1270" y="153.16999999999996" as="targetPoint" />
          </mxGeometry>
        </mxCell>
        <mxCell id="x1OhzLyurRD70b-yP-LV-4" value="\Verbinding systemen" style="edgeLabel;html=1;align=center;verticalAlign=middle;resizable=0;points=[];" vertex="1" connectable="0" parent="x1OhzLyurRD70b-yP-LV-3">
          <mxGeometry x="-0.295" y="2" relative="1" as="geometry">
            <mxPoint x="-2" y="8" as="offset" />
          </mxGeometry>
        </mxCell>
        <mxCell id="x1OhzLyurRD70b-yP-LV-5" value="" style="endArrow=classic;html=1;rounded=0;strokeWidth=2;" edge="1" parent="x1OhzLyurRD70b-yP-LV-7">
          <mxGeometry width="50" height="50" relative="1" as="geometry">
            <mxPoint x="1360" y="208.24" as="sourcePoint" />
            <mxPoint x="1280" y="208.24" as="targetPoint" />
          </mxGeometry>
        </mxCell>
        <mxCell id="x1OhzLyurRD70b-yP-LV-6" value="Verbinding Personeel of gast" style="edgeLabel;html=1;align=center;verticalAlign=middle;resizable=0;points=[];" vertex="1" connectable="0" parent="x1OhzLyurRD70b-yP-LV-5">
          <mxGeometry x="-0.295" y="2" relative="1" as="geometry">
            <mxPoint x="-2" y="16" as="offset" />
          </mxGeometry>
        </mxCell>
      </root>
    </mxGraphModel>
  </diagram>
</mxfile>
